<mxfile host="app.diagrams.net" modified="2020-10-31T16:16:36.263Z" agent="5.0 (Windows NT 10.0; Win64; x64) AppleWebKit/537.36 (KHTML, like Gecko) Chrome/86.0.4240.111 Safari/537.36" etag="Rjd1A2cjzNamA14Yc__Y" version="13.8.8" type="github">
  <diagram id="Y1BC1mLRhoVNTcEu0Y6o" name="Page-1">
    <mxGraphModel dx="1673" dy="904" grid="1" gridSize="10" guides="1" tooltips="1" connect="1" arrows="1" fold="1" page="1" pageScale="1" pageWidth="827" pageHeight="1169" math="0" shadow="0">
      <root>
        <mxCell id="0" />
        <mxCell id="1" parent="0" />
        <mxCell id="DTJ1X9_D5SaCpwSaTS2F-1" value="AFILIADOS" style="whiteSpace=wrap;html=1;align=center;fillColor=#dae8fc;strokeColor=#6c8ebf;" vertex="1" parent="1">
          <mxGeometry x="410" y="240" width="100" height="40" as="geometry" />
        </mxCell>
        <mxCell id="DTJ1X9_D5SaCpwSaTS2F-2" value="HORA_CAPTURA" style="ellipse;whiteSpace=wrap;html=1;align=center;fillColor=#ffe6cc;strokeColor=#d79b00;" vertex="1" parent="1">
          <mxGeometry x="400" y="160" width="110" height="40" as="geometry" />
        </mxCell>
        <mxCell id="DTJ1X9_D5SaCpwSaTS2F-3" value="PATICIPAN" style="shape=rhombus;perimeter=rhombusPerimeter;whiteSpace=wrap;html=1;align=center;fillColor=#d5e8d4;strokeColor=#82b366;" vertex="1" parent="1">
          <mxGeometry x="550" y="230" width="120" height="60" as="geometry" />
        </mxCell>
        <mxCell id="DTJ1X9_D5SaCpwSaTS2F-4" value="(1,N)" style="text;html=1;strokeColor=none;fillColor=none;align=center;verticalAlign=middle;whiteSpace=wrap;rounded=0;" vertex="1" parent="1">
          <mxGeometry x="510" y="240" width="40" height="20" as="geometry" />
        </mxCell>
        <mxCell id="DTJ1X9_D5SaCpwSaTS2F-5" value="EVENTOS&lt;br&gt;DEPORTÍVOS" style="whiteSpace=wrap;html=1;align=center;fillColor=#dae8fc;strokeColor=#6c8ebf;" vertex="1" parent="1">
          <mxGeometry x="710" y="240" width="100" height="40" as="geometry" />
        </mxCell>
        <mxCell id="DTJ1X9_D5SaCpwSaTS2F-6" value="" style="endArrow=none;html=1;exitX=1;exitY=0.5;exitDx=0;exitDy=0;entryX=0;entryY=0.5;entryDx=0;entryDy=0;" edge="1" parent="1" source="DTJ1X9_D5SaCpwSaTS2F-1" target="DTJ1X9_D5SaCpwSaTS2F-3">
          <mxGeometry width="50" height="50" relative="1" as="geometry">
            <mxPoint x="680" y="620" as="sourcePoint" />
            <mxPoint x="730" y="570" as="targetPoint" />
          </mxGeometry>
        </mxCell>
        <mxCell id="DTJ1X9_D5SaCpwSaTS2F-7" value="" style="endArrow=none;html=1;entryX=1;entryY=0.5;entryDx=0;entryDy=0;exitX=0;exitY=0.5;exitDx=0;exitDy=0;" edge="1" parent="1" source="DTJ1X9_D5SaCpwSaTS2F-5" target="DTJ1X9_D5SaCpwSaTS2F-3">
          <mxGeometry width="50" height="50" relative="1" as="geometry">
            <mxPoint x="680" y="620" as="sourcePoint" />
            <mxPoint x="730" y="570" as="targetPoint" />
          </mxGeometry>
        </mxCell>
        <mxCell id="DTJ1X9_D5SaCpwSaTS2F-8" value="N:N" style="text;html=1;strokeColor=none;fillColor=none;align=center;verticalAlign=middle;whiteSpace=wrap;rounded=0;" vertex="1" parent="1">
          <mxGeometry x="590" y="210" width="40" height="20" as="geometry" />
        </mxCell>
        <mxCell id="DTJ1X9_D5SaCpwSaTS2F-9" value="(0,N)" style="text;html=1;strokeColor=none;fillColor=none;align=center;verticalAlign=middle;whiteSpace=wrap;rounded=0;" vertex="1" parent="1">
          <mxGeometry x="670" y="240" width="40" height="20" as="geometry" />
        </mxCell>
        <mxCell id="DTJ1X9_D5SaCpwSaTS2F-10" value="HACER" style="shape=rhombus;perimeter=rhombusPerimeter;whiteSpace=wrap;html=1;align=center;fillColor=#d5e8d4;strokeColor=#82b366;" vertex="1" parent="1">
          <mxGeometry x="400" y="320" width="120" height="60" as="geometry" />
        </mxCell>
        <mxCell id="DTJ1X9_D5SaCpwSaTS2F-11" value="REALIZAR" style="shape=rhombus;perimeter=rhombusPerimeter;whiteSpace=wrap;html=1;align=center;fillColor=#d5e8d4;strokeColor=#82b366;" vertex="1" parent="1">
          <mxGeometry x="700" y="320" width="120" height="60" as="geometry" />
        </mxCell>
        <mxCell id="DTJ1X9_D5SaCpwSaTS2F-12" value="CAPTURAS" style="whiteSpace=wrap;html=1;align=center;fillColor=#dae8fc;strokeColor=#6c8ebf;" vertex="1" parent="1">
          <mxGeometry x="410" y="420" width="100" height="40" as="geometry" />
        </mxCell>
        <mxCell id="DTJ1X9_D5SaCpwSaTS2F-13" value="LUGARES" style="whiteSpace=wrap;html=1;align=center;fillColor=#dae8fc;strokeColor=#6c8ebf;" vertex="1" parent="1">
          <mxGeometry x="710" y="420" width="100" height="40" as="geometry" />
        </mxCell>
        <mxCell id="DTJ1X9_D5SaCpwSaTS2F-14" value="SER" style="shape=rhombus;perimeter=rhombusPerimeter;whiteSpace=wrap;html=1;align=center;fillColor=#d5e8d4;strokeColor=#82b366;" vertex="1" parent="1">
          <mxGeometry x="550" y="410" width="120" height="60" as="geometry" />
        </mxCell>
        <mxCell id="DTJ1X9_D5SaCpwSaTS2F-15" value="" style="endArrow=none;html=1;entryX=0.5;entryY=1;entryDx=0;entryDy=0;exitX=0.5;exitY=0;exitDx=0;exitDy=0;" edge="1" parent="1" source="DTJ1X9_D5SaCpwSaTS2F-12" target="DTJ1X9_D5SaCpwSaTS2F-10">
          <mxGeometry width="50" height="50" relative="1" as="geometry">
            <mxPoint x="680" y="620" as="sourcePoint" />
            <mxPoint x="730" y="570" as="targetPoint" />
          </mxGeometry>
        </mxCell>
        <mxCell id="DTJ1X9_D5SaCpwSaTS2F-16" value="" style="endArrow=none;html=1;entryX=0.5;entryY=1;entryDx=0;entryDy=0;exitX=0.5;exitY=0;exitDx=0;exitDy=0;" edge="1" parent="1" source="DTJ1X9_D5SaCpwSaTS2F-10" target="DTJ1X9_D5SaCpwSaTS2F-1">
          <mxGeometry width="50" height="50" relative="1" as="geometry">
            <mxPoint x="470" y="430" as="sourcePoint" />
            <mxPoint x="470" y="390" as="targetPoint" />
          </mxGeometry>
        </mxCell>
        <mxCell id="DTJ1X9_D5SaCpwSaTS2F-17" value="" style="endArrow=none;html=1;entryX=1;entryY=0.5;entryDx=0;entryDy=0;exitX=0;exitY=0.5;exitDx=0;exitDy=0;" edge="1" parent="1" source="DTJ1X9_D5SaCpwSaTS2F-14" target="DTJ1X9_D5SaCpwSaTS2F-12">
          <mxGeometry width="50" height="50" relative="1" as="geometry">
            <mxPoint x="480" y="440" as="sourcePoint" />
            <mxPoint x="480" y="400" as="targetPoint" />
          </mxGeometry>
        </mxCell>
        <mxCell id="DTJ1X9_D5SaCpwSaTS2F-18" value="" style="endArrow=none;html=1;entryX=0;entryY=0.5;entryDx=0;entryDy=0;exitX=1;exitY=0.5;exitDx=0;exitDy=0;" edge="1" parent="1" source="DTJ1X9_D5SaCpwSaTS2F-14" target="DTJ1X9_D5SaCpwSaTS2F-13">
          <mxGeometry width="50" height="50" relative="1" as="geometry">
            <mxPoint x="490" y="450" as="sourcePoint" />
            <mxPoint x="490" y="410" as="targetPoint" />
          </mxGeometry>
        </mxCell>
        <mxCell id="DTJ1X9_D5SaCpwSaTS2F-19" value="" style="endArrow=none;html=1;entryX=0.5;entryY=1;entryDx=0;entryDy=0;exitX=0.5;exitY=0;exitDx=0;exitDy=0;" edge="1" parent="1" source="DTJ1X9_D5SaCpwSaTS2F-13" target="DTJ1X9_D5SaCpwSaTS2F-11">
          <mxGeometry width="50" height="50" relative="1" as="geometry">
            <mxPoint x="500" y="460" as="sourcePoint" />
            <mxPoint x="500" y="420" as="targetPoint" />
          </mxGeometry>
        </mxCell>
        <mxCell id="DTJ1X9_D5SaCpwSaTS2F-20" value="" style="endArrow=none;html=1;entryX=0.5;entryY=1;entryDx=0;entryDy=0;exitX=0.5;exitY=0;exitDx=0;exitDy=0;" edge="1" parent="1" source="DTJ1X9_D5SaCpwSaTS2F-11" target="DTJ1X9_D5SaCpwSaTS2F-5">
          <mxGeometry width="50" height="50" relative="1" as="geometry">
            <mxPoint x="510" y="470" as="sourcePoint" />
            <mxPoint x="510" y="430" as="targetPoint" />
          </mxGeometry>
        </mxCell>
        <mxCell id="DTJ1X9_D5SaCpwSaTS2F-21" value="(1,1)" style="text;html=1;strokeColor=none;fillColor=none;align=center;verticalAlign=middle;whiteSpace=wrap;rounded=0;" vertex="1" parent="1">
          <mxGeometry x="460" y="280" width="40" height="20" as="geometry" />
        </mxCell>
        <mxCell id="DTJ1X9_D5SaCpwSaTS2F-22" value="(0,N)" style="text;html=1;strokeColor=none;fillColor=none;align=center;verticalAlign=middle;whiteSpace=wrap;rounded=0;" vertex="1" parent="1">
          <mxGeometry x="460" y="400" width="40" height="20" as="geometry" />
        </mxCell>
        <mxCell id="DTJ1X9_D5SaCpwSaTS2F-23" value="1:N" style="text;html=1;strokeColor=none;fillColor=none;align=center;verticalAlign=middle;whiteSpace=wrap;rounded=0;" vertex="1" parent="1">
          <mxGeometry x="520" y="340" width="40" height="20" as="geometry" />
        </mxCell>
        <mxCell id="DTJ1X9_D5SaCpwSaTS2F-24" value="(0,N)" style="text;html=1;strokeColor=none;fillColor=none;align=center;verticalAlign=middle;whiteSpace=wrap;rounded=0;" vertex="1" parent="1">
          <mxGeometry x="760" y="280" width="40" height="20" as="geometry" />
        </mxCell>
        <mxCell id="DTJ1X9_D5SaCpwSaTS2F-25" value="(1,1)" style="text;html=1;strokeColor=none;fillColor=none;align=center;verticalAlign=middle;whiteSpace=wrap;rounded=0;" vertex="1" parent="1">
          <mxGeometry x="760" y="400" width="40" height="20" as="geometry" />
        </mxCell>
        <mxCell id="DTJ1X9_D5SaCpwSaTS2F-26" value="N:1" style="text;html=1;strokeColor=none;fillColor=none;align=center;verticalAlign=middle;whiteSpace=wrap;rounded=0;" vertex="1" parent="1">
          <mxGeometry x="820" y="340" width="40" height="20" as="geometry" />
        </mxCell>
        <mxCell id="DTJ1X9_D5SaCpwSaTS2F-27" value="TENER" style="shape=rhombus;perimeter=rhombusPerimeter;whiteSpace=wrap;html=1;align=center;fillColor=#d5e8d4;strokeColor=#82b366;" vertex="1" parent="1">
          <mxGeometry x="850" y="410" width="120" height="60" as="geometry" />
        </mxCell>
        <mxCell id="DTJ1X9_D5SaCpwSaTS2F-28" value="PECES" style="whiteSpace=wrap;html=1;align=center;fillColor=#dae8fc;strokeColor=#6c8ebf;" vertex="1" parent="1">
          <mxGeometry x="1010" y="420" width="100" height="40" as="geometry" />
        </mxCell>
        <mxCell id="DTJ1X9_D5SaCpwSaTS2F-29" value="" style="endArrow=none;html=1;entryX=1;entryY=0.5;entryDx=0;entryDy=0;exitX=0;exitY=0.5;exitDx=0;exitDy=0;" edge="1" parent="1" source="DTJ1X9_D5SaCpwSaTS2F-27" target="DTJ1X9_D5SaCpwSaTS2F-13">
          <mxGeometry width="50" height="50" relative="1" as="geometry">
            <mxPoint x="680" y="620" as="sourcePoint" />
            <mxPoint x="730" y="570" as="targetPoint" />
          </mxGeometry>
        </mxCell>
        <mxCell id="DTJ1X9_D5SaCpwSaTS2F-30" value="" style="endArrow=none;html=1;entryX=0;entryY=0.5;entryDx=0;entryDy=0;exitX=1;exitY=0.5;exitDx=0;exitDy=0;" edge="1" parent="1" source="DTJ1X9_D5SaCpwSaTS2F-27" target="DTJ1X9_D5SaCpwSaTS2F-28">
          <mxGeometry width="50" height="50" relative="1" as="geometry">
            <mxPoint x="860" y="450" as="sourcePoint" />
            <mxPoint x="820" y="450" as="targetPoint" />
          </mxGeometry>
        </mxCell>
        <mxCell id="DTJ1X9_D5SaCpwSaTS2F-31" value="(1,N)" style="text;html=1;strokeColor=none;fillColor=none;align=center;verticalAlign=middle;whiteSpace=wrap;rounded=0;" vertex="1" parent="1">
          <mxGeometry x="810" y="420" width="40" height="20" as="geometry" />
        </mxCell>
        <mxCell id="DTJ1X9_D5SaCpwSaTS2F-32" value="(1,N)" style="text;html=1;strokeColor=none;fillColor=none;align=center;verticalAlign=middle;whiteSpace=wrap;rounded=0;" vertex="1" parent="1">
          <mxGeometry x="970" y="420" width="40" height="20" as="geometry" />
        </mxCell>
        <mxCell id="DTJ1X9_D5SaCpwSaTS2F-33" value="N:N" style="text;html=1;strokeColor=none;fillColor=none;align=center;verticalAlign=middle;whiteSpace=wrap;rounded=0;" vertex="1" parent="1">
          <mxGeometry x="890" y="390" width="40" height="20" as="geometry" />
        </mxCell>
        <mxCell id="DTJ1X9_D5SaCpwSaTS2F-44" style="edgeStyle=orthogonalEdgeStyle;rounded=0;orthogonalLoop=1;jettySize=auto;html=1;exitX=0.5;exitY=1;exitDx=0;exitDy=0;endArrow=none;endFill=0;" edge="1" parent="1" source="DTJ1X9_D5SaCpwSaTS2F-34" target="DTJ1X9_D5SaCpwSaTS2F-41">
          <mxGeometry relative="1" as="geometry">
            <mxPoint x="390" y="570" as="targetPoint" />
            <Array as="points">
              <mxPoint x="390" y="515" />
            </Array>
          </mxGeometry>
        </mxCell>
        <mxCell id="DTJ1X9_D5SaCpwSaTS2F-45" style="edgeStyle=orthogonalEdgeStyle;rounded=0;orthogonalLoop=1;jettySize=auto;html=1;exitX=0.5;exitY=0;exitDx=0;exitDy=0;entryX=0.5;entryY=0;entryDx=0;entryDy=0;endArrow=none;endFill=0;" edge="1" parent="1" source="DTJ1X9_D5SaCpwSaTS2F-34" target="DTJ1X9_D5SaCpwSaTS2F-42">
          <mxGeometry relative="1" as="geometry">
            <Array as="points">
              <mxPoint x="540" y="515" />
            </Array>
          </mxGeometry>
        </mxCell>
        <mxCell id="DTJ1X9_D5SaCpwSaTS2F-34" value="" style="triangle;whiteSpace=wrap;html=1;rotation=90;" vertex="1" parent="1">
          <mxGeometry x="445" y="480" width="30" height="70" as="geometry" />
        </mxCell>
        <mxCell id="DTJ1X9_D5SaCpwSaTS2F-35" value="" style="endArrow=none;html=1;exitX=0;exitY=0.5;exitDx=0;exitDy=0;entryX=0.5;entryY=1;entryDx=0;entryDy=0;" edge="1" parent="1" source="DTJ1X9_D5SaCpwSaTS2F-34" target="DTJ1X9_D5SaCpwSaTS2F-12">
          <mxGeometry width="50" height="50" relative="1" as="geometry">
            <mxPoint x="680" y="620" as="sourcePoint" />
            <mxPoint x="460" y="520" as="targetPoint" />
          </mxGeometry>
        </mxCell>
        <mxCell id="DTJ1X9_D5SaCpwSaTS2F-41" value="CAPTURAS" style="whiteSpace=wrap;html=1;align=center;fillColor=#dae8fc;strokeColor=#6c8ebf;" vertex="1" parent="1">
          <mxGeometry x="340" y="570" width="100" height="40" as="geometry" />
        </mxCell>
        <mxCell id="DTJ1X9_D5SaCpwSaTS2F-42" value="CAPTURAS" style="whiteSpace=wrap;html=1;align=center;fillColor=#dae8fc;strokeColor=#6c8ebf;" vertex="1" parent="1">
          <mxGeometry x="490" y="570" width="100" height="40" as="geometry" />
        </mxCell>
        <mxCell id="DTJ1X9_D5SaCpwSaTS2F-46" value="NUM_CONSECUTIVO" style="ellipse;whiteSpace=wrap;html=1;align=center;fillColor=#ffe6cc;strokeColor=#d79b00;" vertex="1" parent="1">
          <mxGeometry x="210" y="370" width="130" height="40" as="geometry" />
        </mxCell>
        <mxCell id="DTJ1X9_D5SaCpwSaTS2F-47" value="PESO" style="ellipse;whiteSpace=wrap;html=1;align=center;fillColor=#ffe6cc;strokeColor=#d79b00;" vertex="1" parent="1">
          <mxGeometry x="220" y="420" width="110" height="40" as="geometry" />
        </mxCell>
        <mxCell id="DTJ1X9_D5SaCpwSaTS2F-48" value="TALLA" style="ellipse;whiteSpace=wrap;html=1;align=center;fillColor=#ffe6cc;strokeColor=#d79b00;" vertex="1" parent="1">
          <mxGeometry x="220" y="470" width="110" height="40" as="geometry" />
        </mxCell>
        <mxCell id="DTJ1X9_D5SaCpwSaTS2F-49" value="" style="endArrow=none;html=1;exitX=1;exitY=0.5;exitDx=0;exitDy=0;entryX=0;entryY=0;entryDx=0;entryDy=0;" edge="1" parent="1" source="DTJ1X9_D5SaCpwSaTS2F-46" target="DTJ1X9_D5SaCpwSaTS2F-12">
          <mxGeometry width="50" height="50" relative="1" as="geometry">
            <mxPoint x="590" y="400" as="sourcePoint" />
            <mxPoint x="640" y="350" as="targetPoint" />
          </mxGeometry>
        </mxCell>
        <mxCell id="DTJ1X9_D5SaCpwSaTS2F-50" value="" style="endArrow=none;html=1;exitX=1;exitY=0.5;exitDx=0;exitDy=0;entryX=0;entryY=0.5;entryDx=0;entryDy=0;" edge="1" parent="1" source="DTJ1X9_D5SaCpwSaTS2F-47" target="DTJ1X9_D5SaCpwSaTS2F-12">
          <mxGeometry width="50" height="50" relative="1" as="geometry">
            <mxPoint x="350" y="379.9999999999998" as="sourcePoint" />
            <mxPoint x="420" y="429.9999999999998" as="targetPoint" />
          </mxGeometry>
        </mxCell>
        <mxCell id="DTJ1X9_D5SaCpwSaTS2F-51" value="" style="endArrow=none;html=1;exitX=1;exitY=0.5;exitDx=0;exitDy=0;entryX=0;entryY=1;entryDx=0;entryDy=0;" edge="1" parent="1" source="DTJ1X9_D5SaCpwSaTS2F-48" target="DTJ1X9_D5SaCpwSaTS2F-12">
          <mxGeometry width="50" height="50" relative="1" as="geometry">
            <mxPoint x="360" y="389.9999999999998" as="sourcePoint" />
            <mxPoint x="430" y="439.9999999999998" as="targetPoint" />
          </mxGeometry>
        </mxCell>
      </root>
    </mxGraphModel>
  </diagram>
</mxfile>
